<?xml version="1.0" encoding="utf-8"?>
<svg xmlns="http://www.w3.org/2000/svg" xmlns:xlink="http://www.w3.org/1999/xlink" style="margin: auto; background: rgb(255, 255, 255); display: block; shape-rendering: auto;" width="203px" height="203px" viewBox="0 0 100 100" preserveAspectRatio="xMidYMid">
<g transform="translate(50 50)">
<g>
<animateTransform attributeName="transform" type="rotate" values="0;40" keyTimes="0;1" dur="0.2469135802469136s" repeatCount="indefinite"></animateTransform><path d="M21.301408404140794 -5.5 L25.301408404140794 -5.5 L25.301408404140794 5.5 L21.301408404140794 5.5 A22 22 0 0 1 19.853157391875918 9.47903695390004 L19.853157391875918 9.47903695390004 L22.91733516435183 12.050187392646198 L15.846671457799896 20.476676266954954 L12.782493685323985 17.9055258282088 A22 22 0 0 1 9.115393392685228 20.022727169309142 L9.115393392685228 20.022727169309142 L9.80998610335295 23.961958181357975 L-1.0228991797813358 25.87208813569421 L-1.7174918904490575 21.932857123645377 A22 22 0 0 1 -5.887564481255981 21.197560814373265 L-5.887564481255981 21.197560814373265 L-7.88756448125598 24.66166242951102 L-17.41384392288481 19.16166242951102 L-15.413843922884809 15.697560814373265 A22 22 0 0 1 -18.135665501426853 12.45382016974534 L-18.135665501426853 12.45382016974534 L-21.894435984570485 13.821900743048015 L-25.656657561152848 3.485281914403018 L-21.897887078009216 2.1172013411003423 A22 22 0 0 1 -21.897887078009216 -2.117201341100337 L-21.897887078009216 -2.117201341100337 L-25.656657561152848 -3.4852819144030116 L-21.894435984570492 -13.821900743048008 L-18.135665501426857 -12.453820169745335 A22 22 0 0 1 -15.41384392288482 -15.697560814373256 L-15.41384392288482 -15.697560814373256 L-17.41384392288482 -19.16166242951101 L-7.887564481255993 -24.66166242951102 L-5.887564481255991 -21.197560814373265 A22 22 0 0 1 -1.7174918904490728 -21.932857123645377 L-1.7174918904490728 -21.932857123645377 L-1.022899179781353 -25.87208813569421 L9.809986103352944 -23.96195818135798 L9.115393392685224 -20.022727169309146 A22 22 0 0 1 12.782493685323978 -17.905525828208805 L12.782493685323978 -17.905525828208805 L15.84667145779989 -20.476676266954964 L22.91733516435183 -12.050187392646203 L19.853157391875918 -9.479036953900044 A22 22 0 0 1 21.30140840414079 -5.500000000000009 M0 -29A29 29 0 1 0 0 29 A29 29 0 1 0 0 -29" fill="#df1317"></path></g></g>
<!-- [ldio] generated by https://loading.io/ --></svg>